<svg width="50" height="50" viewBox="0 0 50 50" fill="none" xmlns="http://www.w3.org/2000/svg">
<g filter="url(#filter0_f_1_1490)">
<path fill-rule="evenodd" clip-rule="evenodd" d="M15.655 22.6994C15.6554 22.6983 15.6557 22.6973 15.6561 22.6962C15.6572 22.6925 15.6585 22.6887 15.6596 22.6851C15.7267 22.4706 15.9406 22.3378 16.1624 22.3728C21.3258 22.7274 25.0776 20.8728 27.3218 15.9362L27.3219 15.9361C27.3894 15.7502 27.5696 15.6298 27.767 15.6384L27.7671 15.6383C27.7808 15.6388 27.7945 15.6402 27.8082 15.6418C27.8125 15.6425 27.8168 15.6433 27.8209 15.6439C27.8307 15.6456 27.8403 15.6474 27.85 15.6495C27.8575 15.6513 27.8649 15.6533 27.8722 15.6555C27.8786 15.6572 27.8849 15.6592 27.891 15.6612C27.9014 15.6647 27.9116 15.6685 27.9217 15.6729C27.9248 15.6741 27.9279 15.6753 27.9309 15.6766C28.1228 15.7612 28.2315 15.9666 28.1936 16.1729C27.6705 21.5668 29.991 25.0481 34.6359 27.3225L34.6358 27.3226C34.8405 27.3985 34.9618 27.6097 34.9244 27.8248L34.9241 27.825L34.924 27.8251C34.9226 27.8347 34.9209 27.8444 34.9187 27.8538C34.9172 27.8601 34.9156 27.8662 34.9137 27.8724C34.9127 27.8762 34.9118 27.8798 34.9107 27.8836C34.844 28.0979 34.6302 28.2309 34.4084 28.1963C29.2442 27.8434 25.4926 29.6962 23.2483 34.6327L23.2484 34.6328C23.181 34.8182 23.0013 34.9388 22.8042 34.9307C22.8028 34.9306 22.8015 34.9305 22.8 34.9306C22.7871 34.9298 22.7744 34.9287 22.7615 34.9271C22.7572 34.9263 22.7529 34.9256 22.7486 34.9249C22.7388 34.9232 22.7292 34.9214 22.7195 34.9192C22.7119 34.9173 22.7047 34.9153 22.6972 34.9131C22.691 34.9113 22.6846 34.9096 22.6784 34.9076C22.668 34.9041 22.6577 34.9001 22.6477 34.8958C22.6447 34.8947 22.6416 34.8934 22.6385 34.8922C22.6256 34.8863 22.6129 34.88 22.6005 34.873C22.4313 34.7784 22.3411 34.587 22.3758 34.3964C22.8979 29.002 20.5769 25.5226 15.9322 23.2459C15.7275 23.1697 15.6062 22.958 15.6441 22.7428C15.6459 22.7332 15.648 22.7238 15.6503 22.7143C15.6514 22.7091 15.6527 22.7038 15.6538 22.6986L15.655 22.6994Z" fill="url(#paint0_linear_1_1490)"/>
</g>
<path fill-rule="evenodd" clip-rule="evenodd" d="M15.655 22.6994C15.6554 22.6983 15.6557 22.6973 15.6561 22.6962C15.6572 22.6925 15.6585 22.6887 15.6596 22.6851C15.7267 22.4706 15.9406 22.3378 16.1624 22.3728C21.3258 22.7274 25.0776 20.8728 27.3218 15.9362L27.3219 15.9361C27.3894 15.7502 27.5696 15.6298 27.767 15.6384L27.7671 15.6383C27.7808 15.6388 27.7945 15.6402 27.8082 15.6418C27.8125 15.6425 27.8168 15.6433 27.8209 15.6439C27.8307 15.6456 27.8403 15.6474 27.85 15.6495C27.8575 15.6513 27.8649 15.6533 27.8722 15.6555C27.8786 15.6572 27.8849 15.6592 27.891 15.6612C27.9014 15.6647 27.9116 15.6685 27.9217 15.6729C27.9248 15.6741 27.9279 15.6753 27.9309 15.6766C28.1228 15.7612 28.2315 15.9666 28.1936 16.1729C27.6705 21.5668 29.991 25.0481 34.6359 27.3225L34.6358 27.3226C34.8405 27.3985 34.9618 27.6097 34.9244 27.8248L34.9241 27.825L34.924 27.8251C34.9226 27.8347 34.9209 27.8444 34.9187 27.8538C34.9172 27.8601 34.9156 27.8662 34.9137 27.8724C34.9127 27.8762 34.9118 27.8798 34.9107 27.8836C34.844 28.0979 34.6302 28.2309 34.4084 28.1963C29.2442 27.8434 25.4926 29.6962 23.2483 34.6327L23.2484 34.6328C23.181 34.8182 23.0013 34.9388 22.8042 34.9307C22.8028 34.9306 22.8015 34.9305 22.8 34.9306C22.7871 34.9298 22.7744 34.9287 22.7615 34.9271C22.7572 34.9263 22.7529 34.9256 22.7486 34.9249C22.7388 34.9232 22.7292 34.9214 22.7195 34.9192C22.7119 34.9173 22.7047 34.9153 22.6972 34.9131C22.691 34.9113 22.6846 34.9096 22.6784 34.9076C22.668 34.9041 22.6577 34.9001 22.6477 34.8958C22.6447 34.8947 22.6416 34.8934 22.6385 34.8922C22.6256 34.8863 22.6129 34.88 22.6005 34.873C22.4313 34.7784 22.3411 34.587 22.3758 34.3964C22.8979 29.002 20.5769 25.5226 15.9322 23.2459C15.7275 23.1697 15.6062 22.958 15.6441 22.7428C15.6459 22.7332 15.648 22.7238 15.6503 22.7143C15.6514 22.7091 15.6527 22.7038 15.6538 22.6986L15.655 22.6994Z" fill="url(#paint1_linear_1_1490)"/>
<defs>
<filter id="filter0_f_1_1490" x="0.637207" y="0.637939" width="49.2939" height="49.2932" filterUnits="userSpaceOnUse" color-interpolation-filters="sRGB">
<feFlood flood-opacity="0" result="BackgroundImageFix"/>
<feBlend mode="normal" in="SourceGraphic" in2="BackgroundImageFix" result="shape"/>
<feGaussianBlur stdDeviation="7.5" result="effect1_foregroundBlur_1_1490"/>
</filter>
<linearGradient id="paint0_linear_1_1490" x1="21.6927" y1="19.0635" x2="28.8764" y2="31.5061" gradientUnits="userSpaceOnUse">
<stop stop-color="#C835FB"/>
<stop offset="1" stop-color="#552EFA"/>
</linearGradient>
<linearGradient id="paint1_linear_1_1490" x1="21.6927" y1="19.0635" x2="28.8764" y2="31.5061" gradientUnits="userSpaceOnUse">
<stop stop-color="#C835FB"/>
<stop offset="1" stop-color="#552EFA"/>
</linearGradient>
</defs>
</svg>
