<svg width="15" height="13" viewBox="0 0 15 13" fill="none" xmlns="http://www.w3.org/2000/svg">
<path d="M12.9893 2.00989C12.6693 1.68973 12.2894 1.43575 11.8712 1.26247C11.453 1.08919 11.0047 1 10.552 1C10.0994 1 9.65113 1.08919 9.23294 1.26247C8.81474 1.43575 8.43478 1.68973 8.11476 2.00989L7.45062 2.67404L6.78647 2.00989C6.14006 1.36348 5.26335 1.00034 4.34919 1.00034C3.43503 1.00034 2.55831 1.36348 1.9119 2.00989C1.26549 2.6563 0.902344 3.53302 0.902344 4.44718C0.902344 5.36134 1.26549 6.23806 1.9119 6.88446L2.57605 7.54861L7.45062 12.4232L12.3252 7.54861L12.9893 6.88446C13.3095 6.56445 13.5635 6.18449 13.7368 5.76629C13.91 5.34809 13.9992 4.89985 13.9992 4.44718C13.9992 3.9945 13.91 3.54626 13.7368 3.12806C13.5635 2.70987 13.3095 2.32991 12.9893 2.00989Z" fill="white" stroke="black" stroke-linecap="round" stroke-linejoin="round"/>
</svg>
