<svg width="8" height="8" viewBox="0 0 8 8" fill="none" xmlns="http://www.w3.org/2000/svg">
<path d="M7.67115 3.64124C7.67115 5.63606 6.05403 7.25318 4.05921 7.25318C2.06439 7.25318 0.447266 5.63606 0.447266 3.64124C0.447266 1.64642 2.06439 0.0292969 4.05921 0.0292969C6.05403 0.0292969 7.67115 1.64642 7.67115 3.64124Z" fill="url(#paint0_radial_1_1555)"/>
<path d="M7.67115 3.64124C7.67115 5.63606 6.05403 7.25318 4.05921 7.25318C2.06439 7.25318 0.447266 5.63606 0.447266 3.64124C0.447266 1.64642 2.06439 0.0292969 4.05921 0.0292969C6.05403 0.0292969 7.67115 1.64642 7.67115 3.64124Z" fill="url(#paint1_angular_1_1555)" style="mix-blend-mode:difference"/>
<path d="M7.67115 3.64124C7.67115 5.63606 6.05403 7.25318 4.05921 7.25318C2.06439 7.25318 0.447266 5.63606 0.447266 3.64124C0.447266 1.64642 2.06439 0.0292969 4.05921 0.0292969C6.05403 0.0292969 7.67115 1.64642 7.67115 3.64124Z" fill="url(#paint2_angular_1_1555)" style="mix-blend-mode:screen"/>
<defs>
<radialGradient id="paint0_radial_1_1555" cx="0" cy="0" r="1" gradientUnits="userSpaceOnUse" gradientTransform="translate(7.67115 0.0292969) rotate(135) scale(10.2161)">
<stop stop-color="#78FFF1"/>
<stop offset="0.2" stop-color="#D0DEFF"/>
<stop offset="0.4" stop-color="#DF97DF"/>
<stop offset="0.6" stop-color="#97EBBE"/>
<stop offset="0.8" stop-color="#F1FCAF"/>
<stop offset="1" stop-color="#C2E3F1"/>
</radialGradient>
<radialGradient id="paint1_angular_1_1555" cx="0" cy="0" r="1" gradientUnits="userSpaceOnUse" gradientTransform="translate(4.05921 3.64124) rotate(106.914) scale(3.77524)">
<stop stop-color="white"/>
<stop offset="0.125"/>
<stop offset="0.25" stop-color="white"/>
<stop offset="0.375"/>
<stop offset="0.5" stop-color="white"/>
<stop offset="0.625"/>
<stop offset="0.75" stop-color="white"/>
<stop offset="0.875"/>
<stop offset="1" stop-color="white"/>
</radialGradient>
<radialGradient id="paint2_angular_1_1555" cx="0" cy="0" r="1" gradientUnits="userSpaceOnUse" gradientTransform="translate(4.05921 3.64124) rotate(106.914) scale(3.77524)">
<stop stop-color="white"/>
<stop offset="0.125"/>
<stop offset="0.25" stop-color="white"/>
<stop offset="0.375"/>
<stop offset="0.5" stop-color="white"/>
<stop offset="0.625"/>
<stop offset="0.75" stop-color="white"/>
<stop offset="0.875"/>
<stop offset="1" stop-color="white"/>
</radialGradient>
</defs>
</svg>
