<svg width="145" height="68" viewBox="0 0 145 68" fill="none" xmlns="http://www.w3.org/2000/svg">
<path d="M16.9574 53.6999L18.023 54.0017L16.5408 59.2349L15.4751 58.9331L16.9574 53.6999ZM6.73308 56.171L16.6158 58.9702L16.2447 60.2802L6.36203 57.481L6.73308 56.171ZM12.1933 53.0983L13.2589 53.4002L11.9728 57.9411L10.9071 57.6392L12.1933 53.0983ZM8.12113 51.2704L9.19356 51.5742L7.73053 56.7395L6.6581 56.4357L8.12113 51.2704Z" fill="white"/>
<path d="M10.4846 45.5227L15.1062 45.0393L12.6591 41.089L13.3581 39.6639L16.4958 44.8172L22.6143 44.1172L21.9091 45.555L17.19 46.0613L19.6787 50.1027L18.9735 51.5405L15.7813 46.274L9.78569 46.9478L10.4846 45.5227Z" fill="white"/>
<path d="M23.2949 36.2341L21.6564 38.4355L20.7679 37.7742L22.4064 35.5728C22.7237 35.1465 22.9127 34.7507 22.9735 34.3855C23.0342 34.0204 22.9888 33.6875 22.8372 33.3871C22.6884 33.0829 22.4593 32.8157 22.15 32.5854C21.867 32.3748 21.5547 32.2391 21.213 32.1782C20.8742 32.1136 20.531 32.1572 20.1835 32.309C19.8323 32.4579 19.498 32.7456 19.1807 33.1719L17.7318 35.1186L25.0773 40.5859L24.2643 41.6781L16.0247 35.5453L18.2866 32.5064C18.7499 31.8839 19.2492 31.4376 19.7843 31.1676C20.3195 30.8976 20.8604 30.7931 21.4071 30.8541C21.9501 30.9123 22.4649 31.1225 22.9516 31.4848C23.4798 31.8779 23.8478 32.3247 24.0556 32.8253C24.2634 33.3259 24.3054 33.8643 24.1814 34.4404C24.0537 35.0137 23.7582 35.6116 23.2949 36.2341Z" fill="white"/>
<path d="M34.3562 28.7022L35.1192 29.505L31.3965 33.043L30.6335 32.2402L34.3562 28.7022ZM24.5149 25.413L31.5908 32.8583L30.6039 33.7963L23.5279 26.3509L24.5149 25.413Z" fill="white"/>
<path d="M40.8897 18.8642L41.2441 19.4079C41.6653 20.0541 41.9621 20.6859 42.1344 21.3034C42.3067 21.9209 42.358 22.5077 42.2884 23.064C42.2187 23.6203 42.0328 24.1317 41.7305 24.5982C41.4322 25.0621 41.0211 25.4648 40.497 25.8064C39.9888 26.1377 39.4603 26.3475 38.9115 26.4357C38.3666 26.5214 37.8217 26.4864 37.2768 26.3308C36.7358 26.1725 36.2136 25.8926 35.7103 25.4908C35.207 25.089 34.7448 24.5651 34.3236 23.9189L33.9692 23.3752C33.548 22.7291 33.2545 22.0979 33.0887 21.4818C32.9243 20.8592 32.8789 20.2685 32.9525 19.7096C33.0235 19.1468 33.2082 18.6335 33.5065 18.1696C33.8087 17.7031 34.214 17.3042 34.7222 16.9729C35.2462 16.6313 35.7806 16.4177 36.3255 16.332C36.8743 16.2438 37.4185 16.282 37.9581 16.4467C38.4992 16.6049 39.0174 16.8875 39.5128 17.2944C40.0096 17.6948 40.4685 18.2181 40.8897 18.8642ZM40.1153 20.1437L39.7532 19.5882C39.4194 19.076 39.0708 18.6576 38.7076 18.3329C38.3484 18.0057 37.981 17.7736 37.6054 17.6367C37.2298 17.4997 36.8513 17.4573 36.4699 17.5095C36.0924 17.5591 35.7204 17.7033 35.354 17.9421C34.9994 18.1733 34.7232 18.4515 34.5255 18.7769C34.3317 19.0997 34.2197 19.4618 34.1895 19.8633C34.1632 20.2622 34.2233 20.6946 34.3698 21.1605C34.5163 21.6264 34.7564 22.1154 35.0903 22.6276L35.4524 23.1832C35.7889 23.6993 36.1419 24.1204 36.5116 24.4464C36.8788 24.7685 37.2534 24.9987 37.6355 25.137C38.0189 25.2688 38.3974 25.3112 38.771 25.2642C39.1485 25.2146 39.5145 25.0742 39.8691 24.8431C40.2395 24.6017 40.5235 24.3183 40.7212 23.9929C40.919 23.6675 41.029 23.3067 41.0514 22.9104C41.0751 22.5075 41.0098 22.0757 40.8554 21.615C40.6985 21.1502 40.4518 20.6598 40.1153 20.1437Z" fill="white"/>
<path d="M43.848 11.9883L47.0086 10.7342C47.7256 10.4498 48.3744 10.3189 48.9551 10.3415C49.5402 10.3623 50.0466 10.5358 50.4745 10.8618C50.9051 11.1818 51.2435 11.6522 51.4898 12.2729C51.6632 12.7101 51.7323 13.1456 51.697 13.5796C51.6644 14.0074 51.5323 14.414 51.3006 14.7994C51.0716 15.1787 50.7519 15.5206 50.3414 15.8251L50.042 16.1033L47.0715 17.2818L46.6499 16.2575L48.8925 15.3678C49.3472 15.1874 49.6941 14.9587 49.9333 14.6816C50.1708 14.4002 50.3122 14.0936 50.3577 13.7619C50.4032 13.4301 50.3609 13.1003 50.2308 12.7725C50.0851 12.4053 49.8855 12.1126 49.6319 11.8944C49.3784 11.6762 49.067 11.5544 48.6976 11.5289C48.3309 11.4973 47.9049 11.5778 47.4197 11.7703L45.5246 12.5222L48.9016 21.0336L47.636 21.5357L43.848 11.9883ZM53.2163 19.3217L49.1779 15.9148L50.4933 15.3853L54.5359 18.707L54.5671 18.7857L53.2163 19.3217Z" fill="white"/>
<path d="M63.867 15.6009L64.087 16.6864L58.7563 17.7666L58.5363 16.6811L63.867 15.6009ZM56.986 7.64516L59.0259 17.712L57.6915 17.9824L55.6516 7.91556L56.986 7.64516ZM62.2189 11.0907L62.4389 12.1762L57.8134 13.1135L57.5934 12.028L62.2189 11.0907ZM61.9779 6.63358L62.1993 7.726L56.9377 8.79222L56.7163 7.6998L61.9779 6.63358Z" fill="white"/>
<path d="M80.446 6.47397L79.7334 16.7207L78.3681 16.6257L73.7592 8.36374L73.2095 16.2669L71.8513 16.1725L72.564 5.92576L73.9222 6.02023L78.5507 14.3048L79.1019 6.38048L80.446 6.47397Z" fill="white"/>
<path d="M92.9071 14.4069L92.7255 15.03C92.5097 15.7705 92.2237 16.4072 91.8675 16.9402C91.5113 17.4733 91.0995 17.8946 90.6321 18.2041C90.1647 18.5137 89.6556 18.7058 89.1048 18.7804C88.5585 18.8563 87.9851 18.8068 87.3846 18.6317C86.8021 18.462 86.2986 18.1977 85.8741 17.8388C85.4542 17.4813 85.1257 17.0451 84.8888 16.5303C84.6563 16.0168 84.5286 15.4382 84.5055 14.7947C84.4824 14.1511 84.5788 13.4591 84.7946 12.7186L84.9762 12.0955C85.192 11.355 85.4796 10.7211 85.839 10.1939C86.2042 9.66356 86.6228 9.24424 87.0947 8.936C87.5679 8.62324 88.0777 8.4289 88.624 8.35297C89.1748 8.27836 89.7414 8.32593 90.3239 8.49568C90.9244 8.6707 91.4347 8.93697 91.8546 9.2945C92.2791 9.65335 92.6047 10.0911 92.8313 10.6079C93.0637 11.1214 93.1869 11.6986 93.201 12.3395C93.2209 12.9773 93.1229 13.6664 92.9071 14.4069ZM91.4319 14.653L91.6175 14.0163C91.7885 13.4293 91.8789 12.8923 91.8886 12.4053C91.9028 11.9195 91.8395 11.4896 91.6987 11.1155C91.5579 10.7413 91.3435 10.4265 91.0554 10.1711C90.7718 9.91703 90.4201 9.7288 90.0002 9.60642C89.5938 9.48799 89.2028 9.45976 88.8271 9.52173C88.456 9.58501 88.1083 9.73596 87.784 9.97457C87.4642 10.2145 87.1754 10.5418 86.9173 10.9565C86.6593 11.3711 86.4448 11.872 86.2737 12.4589L86.0882 13.0956C85.9158 13.6871 85.8264 14.2293 85.8199 14.7221C85.8147 15.2105 85.8841 15.6447 86.0281 16.0247C86.1779 16.4014 86.3924 16.7162 86.6714 16.969C86.955 17.2231 87.2999 17.4093 87.7063 17.5278C88.1307 17.6515 88.5308 17.6823 88.9064 17.6204C89.2821 17.5584 89.6276 17.4068 89.9428 17.1655C90.2639 16.9211 90.5489 16.5902 90.7979 16.1729C91.0482 15.7511 91.2595 15.2445 91.4319 14.653Z" fill="white"/>
<path d="M99.0802 19.7141L104.405 14.501L105.263 14.9907L103.384 17.1272L97.7676 22.5391L96.9161 22.0528L99.0802 19.7141ZM100.803 12.444L98.7275 19.3502L97.541 22.4096L96.6956 21.9269L99.6265 11.7724L100.803 12.444ZM104.073 22.3946L108.932 17.0862L110.114 17.7613L102.865 25.4496L102.019 24.9668L104.073 22.3946ZM105.391 15.0642L103.558 22.2713L102.644 25.3236L101.792 24.8374L103.666 17.2881L104.546 14.5814L105.391 15.0642Z" fill="white"/>
<path d="M124.386 31.288L116.763 38.1723L115.845 37.1566L118.259 28.0092L112.38 33.319L111.467 32.3085L119.09 25.4242L120.003 26.4347L117.587 35.612L123.483 30.288L124.386 31.288Z" fill="white"/>
<path d="M128.322 36.963L119.536 42.2846L118.831 41.12L127.616 35.7984L128.322 36.963ZM126.599 43.0377L125.645 43.6151L123.262 39.681L124.216 39.1035L126.599 43.0377ZM130.913 41.241L129.96 41.8185L127.215 37.287L128.168 36.7096L130.913 41.241Z" fill="white"/>
<path d="M134.356 48.877L124.794 52.6292L124.304 51.3815L133.866 47.6292L134.356 48.877ZM135.562 51.9503L134.524 52.3575L131.625 44.9696L132.662 44.5624L135.562 51.9503Z" fill="white"/>
<path d="M130.521 63.7637C130.757 63.717 130.957 63.6388 131.122 63.5293C131.293 63.4234 131.434 63.2659 131.546 63.0567C131.659 62.852 131.751 62.5796 131.822 62.2393C131.895 61.9037 131.953 61.4846 131.997 60.982C132.046 60.4544 132.12 59.9721 132.22 59.5351C132.325 59.0971 132.467 58.7117 132.645 58.379C132.823 58.0463 133.05 57.7735 133.324 57.5608C133.598 57.3481 133.931 57.2028 134.323 57.1249C134.715 57.047 135.094 57.0558 135.458 57.1513C135.822 57.2467 136.156 57.4201 136.46 57.6714C136.77 57.9263 137.035 58.25 137.257 58.6422C137.479 59.0345 137.641 59.489 137.744 60.0056C137.894 60.7621 137.876 61.4322 137.69 62.0158C137.51 62.6031 137.214 63.0814 136.803 63.4508C136.397 63.8192 135.93 64.0556 135.405 64.1601L135.141 62.8316C135.519 62.7564 135.837 62.6093 136.096 62.3901C136.359 62.17 136.541 61.8797 136.642 61.5192C136.748 61.1577 136.751 60.7256 136.651 60.2228C136.556 59.7477 136.407 59.3698 136.202 59.0892C135.998 58.8085 135.758 58.6163 135.484 58.5127C135.21 58.4137 134.916 58.3953 134.603 58.4576C134.39 58.4998 134.205 58.5821 134.047 58.7045C133.895 58.8307 133.764 59.003 133.654 59.2215C133.545 59.4445 133.457 59.7161 133.391 60.036C133.326 60.3606 133.277 60.7419 133.245 61.18C133.197 61.7841 133.115 62.3134 132.999 62.768C132.883 63.2225 132.727 63.6083 132.531 63.9254C132.341 64.2461 132.102 64.5022 131.814 64.6937C131.531 64.8889 131.194 65.0254 130.802 65.1033C130.391 65.1849 130.003 65.1756 129.638 65.0755C129.273 64.9754 128.942 64.7942 128.646 64.5319C128.349 64.2696 128.093 63.9345 127.878 63.5265C127.668 63.1222 127.51 62.6549 127.405 62.1244C127.312 61.6585 127.286 61.1867 127.325 60.709C127.365 60.2358 127.478 59.7891 127.663 59.3688C127.849 58.953 128.109 58.5969 128.443 58.3003C128.783 58.0074 129.204 57.811 129.707 57.7112L129.971 59.0397C129.625 59.1084 129.341 59.2344 129.118 59.4177C128.901 59.6 128.734 59.8225 128.618 60.0853C128.503 60.3526 128.436 60.6417 128.416 60.9525C128.402 61.267 128.427 61.5857 128.491 61.9086C128.584 62.3745 128.727 62.756 128.92 63.0533C129.113 63.3505 129.346 63.5584 129.619 63.6768C129.893 63.7998 130.194 63.8288 130.521 63.7637Z" fill="white"/>
</svg>
