<svg width="80" height="80" viewBox="0 0 80 80" fill="none" xmlns="http://www.w3.org/2000/svg">
<g filter="url(#filter0_f_1_1581)">
<path fill-rule="evenodd" clip-rule="evenodd" d="M47.6625 10.5504C47.6589 10.5498 47.6558 10.549 47.6523 10.5485C47.6409 10.5458 47.6291 10.5435 47.6177 10.5409C46.9511 10.3913 46.2764 10.7526 46.0313 11.3899C39.1167 25.5228 28.5311 32.5814 12.123 30.9859L12.1225 30.9862C11.5307 30.8812 10.9397 31.1727 10.6623 31.7053L10.6618 31.7056C10.6424 31.7424 10.6251 31.7805 10.6086 31.8189C10.604 31.8314 10.5994 31.8439 10.595 31.8556C10.5845 31.884 10.5745 31.9121 10.5655 31.9408C10.5587 31.9631 10.5527 31.9856 10.5474 32.0083C10.5422 32.0277 10.5378 32.0473 10.5339 32.0666C10.5272 32.0994 10.5218 32.132 10.5179 32.1651C10.5165 32.1751 10.515 32.1851 10.5136 32.1951C10.4448 32.8289 10.8204 33.4272 11.4212 33.641C26.4169 40.4625 32.055 51.8635 30.9825 67.5495L30.983 67.5492C30.8717 68.2037 31.2435 68.8442 31.8665 69.0726L31.8675 69.0721L31.868 69.0718C31.8954 69.0829 31.9234 69.0929 31.9514 69.1016C31.9704 69.1071 31.989 69.1121 32.0081 69.1168C32.0197 69.1199 32.0306 69.1229 32.0422 69.126C32.7079 69.2761 33.3828 68.9153 33.629 68.2787C40.5496 54.1462 51.1299 47.0855 67.5377 48.6805L67.538 48.681C68.1287 48.7852 68.7193 48.4954 68.9975 47.9642C68.9993 47.9606 69.0012 47.9569 69.0035 47.9529C69.0212 47.9178 69.0377 47.8827 69.0528 47.8464C69.0574 47.8339 69.062 47.8215 69.0666 47.809C69.0771 47.7806 69.0871 47.7525 69.096 47.7237C69.1026 47.701 69.1081 47.6788 69.1138 47.6558C69.1185 47.6367 69.1237 47.6173 69.1277 47.5979C69.1344 47.5652 69.1395 47.5321 69.1434 47.499C69.1451 47.4895 69.1465 47.4795 69.1479 47.4695C69.152 47.4265 69.1547 47.3836 69.1552 47.3401C69.1633 46.7511 68.7965 46.2225 68.2419 46.0241C53.2463 39.1991 47.6138 27.8 48.6799 12.1109C48.7904 11.4562 48.4176 10.815 47.7933 10.5879C47.7653 10.5779 47.7373 10.5691 47.7088 10.5606C47.6935 10.5557 47.6777 10.551 47.6623 10.5461L47.6625 10.5504Z" fill="url(#paint0_linear_1_1581)"/>
</g>
<path fill-rule="evenodd" clip-rule="evenodd" d="M47.6625 10.5504C47.6589 10.5498 47.6558 10.549 47.6523 10.5485C47.6409 10.5458 47.6291 10.5435 47.6177 10.5409C46.9511 10.3913 46.2764 10.7526 46.0313 11.3899C39.1167 25.5228 28.5311 32.5814 12.123 30.9859L12.1225 30.9862C11.5307 30.8812 10.9397 31.1727 10.6623 31.7053L10.6618 31.7056C10.6424 31.7424 10.6251 31.7805 10.6086 31.8189C10.604 31.8314 10.5994 31.8439 10.595 31.8556C10.5845 31.884 10.5745 31.9121 10.5655 31.9408C10.5587 31.9631 10.5527 31.9856 10.5474 32.0083C10.5422 32.0277 10.5378 32.0473 10.5339 32.0666C10.5272 32.0994 10.5218 32.132 10.5179 32.1651C10.5165 32.1751 10.515 32.1851 10.5136 32.1951C10.4448 32.8289 10.8204 33.4272 11.4212 33.641C26.4169 40.4625 32.055 51.8635 30.9825 67.5495L30.983 67.5492C30.8717 68.2037 31.2435 68.8442 31.8665 69.0726L31.8675 69.0721L31.868 69.0718C31.8954 69.0829 31.9234 69.0929 31.9514 69.1016C31.9704 69.1071 31.989 69.1121 32.0081 69.1168C32.0197 69.1199 32.0306 69.1229 32.0422 69.126C32.7079 69.2761 33.3828 68.9153 33.629 68.2787C40.5496 54.1462 51.1299 47.0855 67.5377 48.6805L67.538 48.681C68.1287 48.7852 68.7193 48.4954 68.9975 47.9642C68.9993 47.9606 69.0012 47.9569 69.0035 47.9529C69.0212 47.9178 69.0377 47.8827 69.0528 47.8464C69.0574 47.8339 69.062 47.8215 69.0666 47.809C69.0771 47.7806 69.0871 47.7525 69.096 47.7237C69.1026 47.701 69.1081 47.6788 69.1138 47.6558C69.1185 47.6367 69.1237 47.6173 69.1277 47.5979C69.1344 47.5652 69.1395 47.5321 69.1434 47.499C69.1451 47.4895 69.1465 47.4795 69.1479 47.4695C69.152 47.4265 69.1547 47.3836 69.1552 47.3401C69.1633 46.7511 68.7965 46.2225 68.2419 46.0241C53.2463 39.1991 47.6138 27.8 48.6799 12.1109C48.7904 11.4562 48.4176 10.815 47.7933 10.5879C47.7653 10.5779 47.7373 10.5691 47.7088 10.5606C47.6935 10.5557 47.6777 10.551 47.6623 10.5461L47.6625 10.5504Z" fill="url(#paint1_linear_1_1581)"/>
<defs>
<filter id="filter0_f_1_1581" x="0.505493" y="0.507202" width="78.6498" height="78.6526" filterUnits="userSpaceOnUse" color-interpolation-filters="sRGB">
<feFlood flood-opacity="0" result="BackgroundImageFix"/>
<feBlend mode="normal" in="SourceGraphic" in2="BackgroundImageFix" result="shape"/>
<feGaussianBlur stdDeviation="5" result="effect1_foregroundBlur_1_1581"/>
</filter>
<linearGradient id="paint0_linear_1_1581" x1="28.9129" y1="20.9195" x2="50.7516" y2="58.7453" gradientUnits="userSpaceOnUse">
<stop stop-color="#C835FB"/>
<stop offset="1" stop-color="#552EFA"/>
</linearGradient>
<linearGradient id="paint1_linear_1_1581" x1="28.9129" y1="20.9195" x2="50.7516" y2="58.7453" gradientUnits="userSpaceOnUse">
<stop stop-color="#C835FB"/>
<stop offset="1" stop-color="#552EFA"/>
</linearGradient>
</defs>
</svg>
