<svg width="42" height="42" viewBox="0 0 42 42" fill="none" xmlns="http://www.w3.org/2000/svg">
<g filter="url(#filter0_f_1_1579)">
<path fill-rule="evenodd" clip-rule="evenodd" d="M15.0258 10.5633L17.8782 14.3333L21.4542 19.0657C21.5535 19.1973 21.7296 19.2444 21.8814 19.1801L27.346 16.873L27.3462 16.8733L31.6948 15.035L27.9285 17.8819L23.1982 21.4609L23.1983 21.4611C23.0667 21.5604 23.0196 21.7365 23.0839 21.8883L25.3942 27.3514L27.2329 31.7067L24.3823 27.9356L20.8064 23.2035L20.8062 23.2033C20.7069 23.0717 20.5309 23.0245 20.3791 23.0888L14.9113 25.3977L14.9112 25.3974L10.5625 27.2357L14.3289 24.3888L19.0623 20.8081L19.0621 20.8078C19.1937 20.7085 19.2409 20.5325 19.1766 20.3807L16.8664 14.9178L15.0259 10.5636L15.0258 10.5633Z" fill="url(#paint0_linear_1_1579)"/>
</g>
<path fill-rule="evenodd" clip-rule="evenodd" d="M15.0258 10.5633L17.8782 14.3333L21.4542 19.0657C21.5535 19.1973 21.7296 19.2444 21.8814 19.1801L27.346 16.873L27.3462 16.8733L31.6948 15.035L27.9285 17.8819L23.1982 21.4609L23.1983 21.4611C23.0667 21.5604 23.0196 21.7365 23.0839 21.8883L25.3942 27.3514L27.2329 31.7067L24.3823 27.9356L20.8064 23.2035L20.8062 23.2033C20.7069 23.0717 20.5309 23.0245 20.3791 23.0888L14.9113 25.3977L14.9112 25.3974L10.5625 27.2357L14.3289 24.3888L19.0623 20.8081L19.0621 20.8078C19.1937 20.7085 19.2409 20.5325 19.1766 20.3807L16.8664 14.9178L15.0259 10.5636L15.0258 10.5633Z" fill="url(#paint1_linear_1_1579)"/>
<defs>
<filter id="filter0_f_1_1579" x="0.562531" y="0.563354" width="41.1323" height="41.1433" filterUnits="userSpaceOnUse" color-interpolation-filters="sRGB">
<feFlood flood-opacity="0" result="BackgroundImageFix"/>
<feBlend mode="normal" in="SourceGraphic" in2="BackgroundImageFix" result="shape"/>
<feGaussianBlur stdDeviation="5" result="effect1_foregroundBlur_1_1579"/>
</filter>
<linearGradient id="paint0_linear_1_1579" x1="15.0251" y1="10.5637" x2="27.2322" y2="31.707" gradientUnits="userSpaceOnUse">
<stop stop-color="#C835FB"/>
<stop offset="1" stop-color="#552EFA"/>
</linearGradient>
<linearGradient id="paint1_linear_1_1579" x1="15.0251" y1="10.5637" x2="27.2322" y2="31.707" gradientUnits="userSpaceOnUse">
<stop stop-color="#C835FB"/>
<stop offset="1" stop-color="#552EFA"/>
</linearGradient>
</defs>
</svg>
